<svg width="375" height="236" viewBox="0 0 375 236" fill="none" xmlns="http://www.w3.org/2000/svg">
<path d="M142.359 141.078L139.688 142.203C139.479 141.526 139.198 140.906 138.844 140.344C138.5 139.781 138.083 139.302 137.594 138.906C137.115 138.5 136.568 138.188 135.953 137.969C135.339 137.74 134.667 137.625 133.938 137.625C133.156 137.625 132.438 137.755 131.781 138.016C131.135 138.276 130.552 138.63 130.031 139.078C129.521 139.516 129.073 140.031 128.688 140.625C128.302 141.219 127.979 141.854 127.719 142.531C127.469 143.198 127.276 143.891 127.141 144.609C127.016 145.328 126.953 146.031 126.953 146.719C126.953 147.812 127.078 148.901 127.328 149.984C127.589 151.068 127.995 152.042 128.547 152.906C129.109 153.771 129.833 154.474 130.719 155.016C131.604 155.547 132.677 155.812 133.938 155.812C134.625 155.812 135.161 155.661 135.547 155.359C135.932 155.047 136.125 154.505 136.125 153.734V146.828H142.328V158H140.531L139.438 156.234C138.438 156.995 137.333 157.557 136.125 157.922C134.927 158.276 133.703 158.453 132.453 158.453C131.349 158.453 130.286 158.318 129.266 158.047C128.255 157.776 127.312 157.391 126.438 156.891C125.562 156.391 124.766 155.786 124.047 155.078C123.339 154.37 122.729 153.583 122.219 152.719C121.719 151.854 121.328 150.917 121.047 149.906C120.776 148.885 120.641 147.823 120.641 146.719C120.641 145.615 120.776 144.557 121.047 143.547C121.328 142.526 121.719 141.583 122.219 140.719C122.729 139.844 123.339 139.052 124.047 138.344C124.766 137.635 125.562 137.031 126.438 136.531C127.312 136.031 128.255 135.646 129.266 135.375C130.286 135.104 131.349 134.969 132.453 134.969C133.516 134.969 134.552 135.094 135.562 135.344C136.583 135.594 137.531 135.974 138.406 136.484C139.281 136.984 140.057 137.62 140.734 138.391C141.422 139.151 141.964 140.047 142.359 141.078ZM165.234 148.938C165.234 149.875 165.109 150.755 164.859 151.578C164.609 152.401 164.26 153.161 163.812 153.859C163.375 154.557 162.844 155.188 162.219 155.75C161.594 156.302 160.906 156.771 160.156 157.156C159.417 157.542 158.62 157.839 157.766 158.047C156.922 158.255 156.052 158.359 155.156 158.359C154.26 158.359 153.391 158.255 152.547 158.047C151.703 157.839 150.906 157.542 150.156 157.156C149.417 156.771 148.734 156.302 148.109 155.75C147.484 155.188 146.948 154.557 146.5 153.859C146.062 153.161 145.719 152.401 145.469 151.578C145.219 150.745 145.094 149.865 145.094 148.938C145.094 148.01 145.219 147.135 145.469 146.312C145.719 145.479 146.062 144.714 146.5 144.016C146.948 143.318 147.484 142.693 148.109 142.141C148.734 141.578 149.417 141.104 150.156 140.719C150.906 140.333 151.703 140.036 152.547 139.828C153.391 139.62 154.26 139.516 155.156 139.516C156.052 139.516 156.922 139.62 157.766 139.828C158.62 140.036 159.417 140.333 160.156 140.719C160.906 141.104 161.594 141.578 162.219 142.141C162.844 142.693 163.375 143.318 163.812 144.016C164.26 144.714 164.609 145.479 164.859 146.312C165.109 147.135 165.234 148.01 165.234 148.938ZM159.859 148.938C159.859 148.438 159.828 147.911 159.766 147.359C159.714 146.797 159.62 146.25 159.484 145.719C159.349 145.177 159.161 144.661 158.922 144.172C158.693 143.672 158.406 143.24 158.062 142.875C157.719 142.5 157.307 142.203 156.828 141.984C156.349 141.755 155.792 141.641 155.156 141.641C154.552 141.641 154.016 141.755 153.547 141.984C153.078 142.214 152.667 142.521 152.312 142.906C151.969 143.281 151.677 143.719 151.438 144.219C151.208 144.719 151.021 145.24 150.875 145.781C150.729 146.312 150.625 146.854 150.562 147.406C150.5 147.948 150.469 148.458 150.469 148.938C150.469 149.417 150.5 149.932 150.562 150.484C150.625 151.026 150.729 151.568 150.875 152.109C151.021 152.651 151.208 153.172 151.438 153.672C151.677 154.161 151.969 154.599 152.312 154.984C152.667 155.359 153.078 155.661 153.547 155.891C154.016 156.12 154.552 156.234 155.156 156.234C155.781 156.234 156.333 156.125 156.812 155.906C157.292 155.677 157.703 155.375 158.047 155C158.401 154.625 158.693 154.193 158.922 153.703C159.151 153.214 159.333 152.698 159.469 152.156C159.615 151.615 159.714 151.068 159.766 150.516C159.828 149.964 159.859 149.438 159.859 148.938ZM189.359 141.078L186.688 142.203C186.479 141.526 186.198 140.906 185.844 140.344C185.5 139.781 185.083 139.302 184.594 138.906C184.115 138.5 183.568 138.188 182.953 137.969C182.339 137.74 181.667 137.625 180.938 137.625C180.156 137.625 179.438 137.755 178.781 138.016C178.135 138.266 177.552 138.615 177.031 139.062C176.521 139.51 176.073 140.031 175.688 140.625C175.302 141.219 174.979 141.854 174.719 142.531C174.458 143.198 174.266 143.891 174.141 144.609C174.016 145.328 173.953 146.031 173.953 146.719C173.953 147.812 174.078 148.901 174.328 149.984C174.589 151.068 174.995 152.042 175.547 152.906C176.109 153.771 176.833 154.474 177.719 155.016C178.604 155.547 179.677 155.812 180.938 155.812C181.604 155.812 182.234 155.703 182.828 155.484C183.422 155.255 183.958 154.948 184.438 154.562C184.927 154.167 185.354 153.703 185.719 153.172C186.083 152.641 186.375 152.068 186.594 151.453L189.297 152.531C188.901 153.521 188.359 154.391 187.672 155.141C186.984 155.88 186.198 156.495 185.312 156.984C184.438 157.474 183.495 157.839 182.484 158.078C181.484 158.328 180.474 158.453 179.453 158.453C178.349 158.453 177.286 158.318 176.266 158.047C175.255 157.776 174.312 157.391 173.438 156.891C172.562 156.391 171.766 155.786 171.047 155.078C170.339 154.37 169.729 153.583 169.219 152.719C168.719 151.854 168.328 150.917 168.047 149.906C167.776 148.885 167.641 147.823 167.641 146.719C167.641 145.615 167.776 144.557 168.047 143.547C168.328 142.526 168.719 141.583 169.219 140.719C169.729 139.844 170.339 139.052 171.047 138.344C171.766 137.635 172.562 137.031 173.438 136.531C174.312 136.031 175.255 135.646 176.266 135.375C177.286 135.104 178.349 134.969 179.453 134.969C180.516 134.969 181.552 135.094 182.562 135.344C183.583 135.594 184.531 135.974 185.406 136.484C186.281 136.984 187.057 137.62 187.734 138.391C188.422 139.151 188.964 140.047 189.359 141.078ZM196.984 149.438C197.63 149.583 198.276 149.698 198.922 149.781C199.568 149.865 200.219 149.906 200.875 149.906C201.562 149.906 202.198 149.844 202.781 149.719C203.375 149.583 203.885 149.365 204.312 149.062C204.75 148.75 205.094 148.339 205.344 147.828C205.594 147.318 205.719 146.682 205.719 145.922C205.719 145.307 205.635 144.745 205.469 144.234C205.302 143.724 205.052 143.286 204.719 142.922C204.396 142.557 203.995 142.276 203.516 142.078C203.036 141.87 202.479 141.766 201.844 141.766C201.25 141.766 200.714 141.875 200.234 142.094C199.766 142.312 199.349 142.609 198.984 142.984C198.63 143.349 198.323 143.776 198.062 144.266C197.812 144.755 197.604 145.266 197.438 145.797C197.271 146.328 197.151 146.865 197.078 147.406C197.005 147.948 196.969 148.458 196.969 148.938C196.969 149.021 196.969 149.104 196.969 149.188C196.969 149.271 196.974 149.354 196.984 149.438ZM210 145.875C210 146.615 209.88 147.276 209.641 147.859C209.401 148.432 209.073 148.938 208.656 149.375C208.25 149.812 207.776 150.182 207.234 150.484C206.693 150.786 206.115 151.036 205.5 151.234C204.885 151.422 204.25 151.557 203.594 151.641C202.948 151.724 202.318 151.766 201.703 151.766C200.922 151.766 200.151 151.714 199.391 151.609C198.63 151.495 197.88 151.318 197.141 151.078C197.255 151.766 197.438 152.422 197.688 153.047C197.938 153.661 198.271 154.203 198.688 154.672C199.104 155.13 199.615 155.495 200.219 155.766C200.833 156.036 201.557 156.172 202.391 156.172C202.943 156.172 203.469 156.089 203.969 155.922C204.469 155.755 204.927 155.521 205.344 155.219C205.76 154.917 206.125 154.557 206.438 154.141C206.76 153.724 207.021 153.26 207.219 152.75L209.5 153.594C209.156 154.417 208.682 155.13 208.078 155.734C207.484 156.328 206.807 156.823 206.047 157.219C205.297 157.604 204.495 157.891 203.641 158.078C202.797 158.266 201.958 158.359 201.125 158.359C199.75 158.359 198.479 158.13 197.312 157.672C196.146 157.203 195.141 156.552 194.297 155.719C193.453 154.885 192.792 153.891 192.312 152.734C191.833 151.578 191.594 150.312 191.594 148.938C191.594 147.562 191.833 146.297 192.312 145.141C192.792 143.984 193.453 142.99 194.297 142.156C195.141 141.323 196.146 140.677 197.312 140.219C198.479 139.75 199.75 139.516 201.125 139.516C201.792 139.516 202.474 139.562 203.172 139.656C203.87 139.75 204.547 139.901 205.203 140.109C205.859 140.307 206.479 140.568 207.062 140.891C207.646 141.214 208.151 141.615 208.578 142.094C209.016 142.562 209.359 143.109 209.609 143.734C209.87 144.359 210 145.073 210 145.875ZM218.578 158H213.297V131.641H215.328L218.578 137.125V158ZM228.266 158H222.984V131.641H225.016L228.266 137.125V158ZM250.844 158H245.562V155.844C244.938 156.698 244.182 157.333 243.297 157.75C242.422 158.156 241.458 158.359 240.406 158.359C239.031 158.359 237.802 158.115 236.719 157.625C235.635 157.135 234.719 156.469 233.969 155.625C233.219 154.771 232.646 153.771 232.25 152.625C231.854 151.479 231.656 150.25 231.656 148.938C231.656 147.625 231.854 146.396 232.25 145.25C232.646 144.104 233.219 143.109 233.969 142.266C234.719 141.411 235.635 140.74 236.719 140.25C237.802 139.76 239.031 139.516 240.406 139.516C241.104 139.516 241.766 139.62 242.391 139.828C243.026 140.036 243.604 140.333 244.125 140.719C244.656 141.094 245.12 141.552 245.516 142.094C245.922 142.625 246.24 143.219 246.469 143.875L248.812 139.953H250.844V158ZM245.531 148.938C245.531 148.469 245.505 147.974 245.453 147.453C245.411 146.932 245.333 146.417 245.219 145.906C245.104 145.396 244.943 144.911 244.734 144.453C244.536 143.984 244.276 143.573 243.953 143.219C243.641 142.854 243.26 142.568 242.812 142.359C242.365 142.151 241.844 142.047 241.25 142.047C240.656 142.047 240.141 142.156 239.703 142.375C239.266 142.583 238.891 142.87 238.578 143.234C238.266 143.589 238.005 144 237.797 144.469C237.599 144.938 237.443 145.427 237.328 145.938C237.214 146.448 237.13 146.964 237.078 147.484C237.036 147.995 237.016 148.479 237.016 148.938C237.016 149.396 237.036 149.885 237.078 150.406C237.13 150.927 237.214 151.443 237.328 151.953C237.443 152.464 237.599 152.953 237.797 153.422C238.005 153.891 238.266 154.307 238.578 154.672C238.891 155.026 239.266 155.312 239.703 155.531C240.141 155.74 240.656 155.844 241.25 155.844C241.792 155.844 242.271 155.734 242.688 155.516C243.115 155.286 243.484 154.984 243.797 154.609C244.12 154.234 244.391 153.807 244.609 153.328C244.828 152.849 245.005 152.354 245.141 151.844C245.276 151.333 245.375 150.828 245.438 150.328C245.5 149.818 245.531 149.354 245.531 148.938ZM270.609 141.547L267.641 146.469C267.516 146.052 267.354 145.583 267.156 145.062C266.958 144.542 266.714 144.057 266.422 143.609C266.13 143.151 265.781 142.771 265.375 142.469C264.969 142.156 264.5 142 263.969 142C263.479 142 263.052 142.125 262.688 142.375C262.333 142.625 262.031 142.953 261.781 143.359C261.531 143.755 261.323 144.208 261.156 144.719C261 145.219 260.875 145.729 260.781 146.25C260.698 146.76 260.641 147.255 260.609 147.734C260.578 148.203 260.562 148.609 260.562 148.953V158H255.266V139.953H257.297L259.438 144.156C259.729 143.479 260.062 142.859 260.438 142.297C260.812 141.724 261.245 141.234 261.734 140.828C262.224 140.411 262.776 140.089 263.391 139.859C264.016 139.63 264.719 139.516 265.5 139.516C265.906 139.516 266.359 139.552 266.859 139.625C267.359 139.688 267.849 139.802 268.328 139.969C268.807 140.125 269.25 140.333 269.656 140.594C270.062 140.854 270.38 141.172 270.609 141.547Z" fill="#F8F8F8"/>
<path fill-rule="evenodd" clip-rule="evenodd" d="M195.589 115.166C192.135 110.629 192.245 104.247 195.919 99.8279C191.5 103.502 185.118 103.612 180.581 100.158C184.035 104.695 183.924 111.077 180.251 115.496C184.67 111.822 191.052 111.712 195.589 115.166ZM212.877 97.8773C208.341 94.4237 201.958 94.5338 197.539 98.2075C201.213 93.7885 201.323 87.4063 197.87 82.8696C202.406 86.3232 208.788 86.2131 213.208 82.5393C209.534 86.9584 209.424 93.3405 212.877 97.8773ZM230.166 80.5886C226.712 76.0519 226.822 69.6697 230.496 65.2507C226.077 68.9244 219.695 69.0345 215.158 65.581C218.612 70.1177 218.502 76.4998 214.828 80.9189C219.247 77.2451 225.629 77.135 230.166 80.5886ZM178.215 97.7925C174.762 93.2557 174.872 86.8736 178.545 82.4545C174.126 86.1283 167.744 86.2384 163.208 82.7848C166.661 87.3215 166.551 93.7037 162.877 98.1228C167.296 94.449 173.678 94.3389 178.215 97.7925ZM195.504 80.5038C190.967 77.0502 184.585 77.1603 180.166 80.8341C183.84 76.4151 183.95 70.0329 180.496 65.4962C185.033 68.9498 191.415 68.8397 195.834 65.1659C192.16 69.5849 192.05 75.9671 195.504 80.5038ZM212.792 63.2152C209.339 58.6785 209.449 52.2963 213.123 47.8772C208.704 51.551 202.322 51.6611 197.785 48.2075C201.238 52.7443 201.128 59.1264 197.455 63.5455C201.874 59.8717 208.256 59.7616 212.792 63.2152ZM160.842 80.419C157.388 75.8823 157.498 69.5002 161.172 65.0811C156.753 68.7549 150.371 68.865 145.834 65.4114C149.288 69.9481 149.178 76.3303 145.504 80.7493C149.923 77.0756 156.305 76.9655 160.842 80.419ZM178.13 63.1304C173.594 59.6768 167.212 59.7869 162.792 63.4607C166.466 59.0416 166.576 52.6595 163.123 48.1228C167.659 51.5763 174.042 51.4662 178.461 47.7925C174.787 52.2115 174.677 58.5937 178.13 63.1304ZM195.419 45.8418C191.965 41.3051 192.076 34.9229 195.749 30.5038C191.33 34.1776 184.948 34.2877 180.411 30.8341C183.865 35.3708 183.755 41.753 180.081 46.1721C184.5 42.4983 190.882 42.3882 195.419 45.8418Z" fill="#F8F8F8"/>
</svg>
